<?xml version="1.0" encoding="utf-8" standalone="no"?><!DOCTYPE svg PUBLIC "-//W3C//DTD SVG 20010904//EN" "http://www.w3.org/TR/2001/REC-SVG-20010904/DTD/svg10.dtd"><svg xmlns="http://www.w3.org/2000/svg" width="1164" height="564" xmlns:xlink="http://www.w3.org/1999/xlink"><source><![CDATA[SqlSessionFactory -> SqlSession: 创建会话
SqlSession -> MapperProxy: 获取Mapper代理
MapperProxy -> MapperProxy: 方法调用
MapperProxy -> SqlSession: 触发数据库操作
SqlSession -> Executor: 委托执行
Executor -> StatementHandler: 创建Statement
StatementHandler -> ParameterHandler: 绑定参数
StatementHandler -> Database: 执行SQL
Database -> StatementHandler: 返回ResultSet
StatementHandler -> ResultSetHandler: 处理结果集
ResultSetHandler -> SqlSession: 返回Java对象
SqlSession -> SqlSession: 关闭会话]]></source><desc></desc><defs><marker viewBox="0 0 5 5" markerWidth="5" markerHeight="5" orient="auto" refX="5" refY="2.5" id="markerArrowBlock"><path d="M 0 0 L 5 2.5 L 0 5 z"></path></marker><marker viewBox="0 0 9.6 16" markerWidth="4" markerHeight="16" orient="auto" refX="9.6" refY="8" id="markerArrowOpen"><path d="M 9.6,8 1.92,16 0,13.7 5.76,8 0,2.286 1.92,0 9.6,8 z"></path></marker></defs><g class="title"></g><g class="actor"><rect x="10" y="20" width="156" height="36" stroke="#000000" fill="#ffffff" style="stroke-width: 2;"></rect><text x="20" y="44" style="font-size: 16px; font-family: &quot;Andale Mono&quot;, monospace;"><tspan x="20">SqlSessionFactory</tspan></text></g><g class="actor"><rect x="10" y="508" width="156" height="36" stroke="#000000" fill="#ffffff" style="stroke-width: 2;"></rect><text x="20" y="532" style="font-size: 16px; font-family: &quot;Andale Mono&quot;, monospace;"><tspan x="20">SqlSessionFactory</tspan></text></g><line x1="88" x2="88" y1="56" y2="508" stroke="#000000" fill="none" style="stroke-width: 2;"></line><g class="actor"><rect x="186" y="20" width="100" height="36" stroke="#000000" fill="#ffffff" style="stroke-width: 2;"></rect><text x="196" y="44" style="font-size: 16px; font-family: &quot;Andale Mono&quot;, monospace;"><tspan x="196">SqlSession</tspan></text></g><g class="actor"><rect x="186" y="508" width="100" height="36" stroke="#000000" fill="#ffffff" style="stroke-width: 2;"></rect><text x="196" y="532" style="font-size: 16px; font-family: &quot;Andale Mono&quot;, monospace;"><tspan x="196">SqlSession</tspan></text></g><line x1="236" x2="236" y1="56" y2="508" stroke="#000000" fill="none" style="stroke-width: 2;"></line><g class="actor"><rect x="314" y="20" width="108" height="36" stroke="#000000" fill="#ffffff" style="stroke-width: 2;"></rect><text x="324" y="44" style="font-size: 16px; font-family: &quot;Andale Mono&quot;, monospace;"><tspan x="324">MapperProxy</tspan></text></g><g class="actor"><rect x="314" y="508" width="108" height="36" stroke="#000000" fill="#ffffff" style="stroke-width: 2;"></rect><text x="324" y="532" style="font-size: 16px; font-family: &quot;Andale Mono&quot;, monospace;"><tspan x="324">MapperProxy</tspan></text></g><line x1="368" x2="368" y1="56" y2="508" stroke="#000000" fill="none" style="stroke-width: 2;"></line><g class="actor"><rect x="442" y="20" width="84" height="36" stroke="#000000" fill="#ffffff" style="stroke-width: 2;"></rect><text x="452" y="44" style="font-size: 16px; font-family: &quot;Andale Mono&quot;, monospace;"><tspan x="452">Executor</tspan></text></g><g class="actor"><rect x="442" y="508" width="84" height="36" stroke="#000000" fill="#ffffff" style="stroke-width: 2;"></rect><text x="452" y="532" style="font-size: 16px; font-family: &quot;Andale Mono&quot;, monospace;"><tspan x="452">Executor</tspan></text></g><line x1="484" x2="484" y1="56" y2="508" stroke="#000000" fill="none" style="stroke-width: 2;"></line><g class="actor"><rect x="546" y="20" width="148" height="36" stroke="#000000" fill="#ffffff" style="stroke-width: 2;"></rect><text x="556" y="44" style="font-size: 16px; font-family: &quot;Andale Mono&quot;, monospace;"><tspan x="556">StatementHandler</tspan></text></g><g class="actor"><rect x="546" y="508" width="148" height="36" stroke="#000000" fill="#ffffff" style="stroke-width: 2;"></rect><text x="556" y="532" style="font-size: 16px; font-family: &quot;Andale Mono&quot;, monospace;"><tspan x="556">StatementHandler</tspan></text></g><line x1="620" x2="620" y1="56" y2="508" stroke="#000000" fill="none" style="stroke-width: 2;"></line><g class="actor"><rect x="714" y="20" width="148" height="36" stroke="#000000" fill="#ffffff" style="stroke-width: 2;"></rect><text x="724" y="44" style="font-size: 16px; font-family: &quot;Andale Mono&quot;, monospace;"><tspan x="724">ParameterHandler</tspan></text></g><g class="actor"><rect x="714" y="508" width="148" height="36" stroke="#000000" fill="#ffffff" style="stroke-width: 2;"></rect><text x="724" y="532" style="font-size: 16px; font-family: &quot;Andale Mono&quot;, monospace;"><tspan x="724">ParameterHandler</tspan></text></g><line x1="788" x2="788" y1="56" y2="508" stroke="#000000" fill="none" style="stroke-width: 2;"></line><g class="actor"><rect x="882" y="20" width="84" height="36" stroke="#000000" fill="#ffffff" style="stroke-width: 2;"></rect><text x="892" y="44" style="font-size: 16px; font-family: &quot;Andale Mono&quot;, monospace;"><tspan x="892">Database</tspan></text></g><g class="actor"><rect x="882" y="508" width="84" height="36" stroke="#000000" fill="#ffffff" style="stroke-width: 2;"></rect><text x="892" y="532" style="font-size: 16px; font-family: &quot;Andale Mono&quot;, monospace;"><tspan x="892">Database</tspan></text></g><line x1="924" x2="924" y1="56" y2="508" stroke="#000000" fill="none" style="stroke-width: 2;"></line><g class="actor"><rect x="986" y="20" width="148" height="36" stroke="#000000" fill="#ffffff" style="stroke-width: 2;"></rect><text x="996" y="44" style="font-size: 16px; font-family: &quot;Andale Mono&quot;, monospace;"><tspan x="996">ResultSetHandler</tspan></text></g><g class="actor"><rect x="986" y="508" width="148" height="36" stroke="#000000" fill="#ffffff" style="stroke-width: 2;"></rect><text x="996" y="532" style="font-size: 16px; font-family: &quot;Andale Mono&quot;, monospace;"><tspan x="996">ResultSetHandler</tspan></text></g><line x1="1060" x2="1060" y1="56" y2="508" stroke="#000000" fill="none" style="stroke-width: 2;"></line><g class="signal"><text x="130" y="87" style="font-size: 16px; font-family: &quot;Andale Mono&quot;, monospace;"><tspan x="130">创建会话</tspan></text><line x1="88" x2="236" y1="92" y2="92" stroke="#000000" fill="none" style="stroke-width: 2; marker-end: url(&quot;#markerArrowBlock&quot;);"></line></g><g class="signal"><text x="246" y="123" style="font-size: 16px; font-family: &quot;Andale Mono&quot;, monospace;"><tspan x="246">获取Mapper代理</tspan></text><line x1="236" x2="368" y1="128" y2="128" stroke="#000000" fill="none" style="stroke-width: 2; marker-end: url(&quot;#markerArrowBlock&quot;);"></line></g><g class="signal"><text x="393" y="161" style="font-size: 16px; font-family: &quot;Andale Mono&quot;, monospace;"><tspan x="393">方法调用</tspan></text><line x1="368" x2="388" y1="148" y2="148" stroke="#000000" fill="none" style="stroke-width: 2;"></line><line x1="388" x2="388" y1="148" y2="169" stroke="#000000" fill="none" style="stroke-width: 2;"></line><line x1="388" x2="368" y1="169" y2="169" stroke="#000000" fill="none" style="stroke-width: 2; marker-end: url(&quot;#markerArrowBlock&quot;);"></line></g><g class="signal"><text x="246" y="195" style="font-size: 16px; font-family: &quot;Andale Mono&quot;, monospace;"><tspan x="246">触发数据库操作</tspan></text><line x1="368" x2="236" y1="200" y2="200" stroke="#000000" fill="none" style="stroke-width: 2; marker-end: url(&quot;#markerArrowBlock&quot;);"></line></g><g class="signal"><text x="328" y="231" style="font-size: 16px; font-family: &quot;Andale Mono&quot;, monospace;"><tspan x="328">委托执行</tspan></text><line x1="236" x2="484" y1="236" y2="236" stroke="#000000" fill="none" style="stroke-width: 2; marker-end: url(&quot;#markerArrowBlock&quot;);"></line></g><g class="signal"><text x="500" y="267" style="font-size: 16px; font-family: &quot;Andale Mono&quot;, monospace;"><tspan x="500">创建Statement</tspan></text><line x1="484" x2="620" y1="272" y2="272" stroke="#000000" fill="none" style="stroke-width: 2; marker-end: url(&quot;#markerArrowBlock&quot;);"></line></g><g class="signal"><text x="672" y="303" style="font-size: 16px; font-family: &quot;Andale Mono&quot;, monospace;"><tspan x="672">绑定参数</tspan></text><line x1="620" x2="788" y1="308" y2="308" stroke="#000000" fill="none" style="stroke-width: 2; marker-end: url(&quot;#markerArrowBlock&quot;);"></line></g><g class="signal"><text x="744" y="339" style="font-size: 16px; font-family: &quot;Andale Mono&quot;, monospace;"><tspan x="744">执行SQL</tspan></text><line x1="620" x2="924" y1="344" y2="344" stroke="#000000" fill="none" style="stroke-width: 2; marker-end: url(&quot;#markerArrowBlock&quot;);"></line></g><g class="signal"><text x="720" y="375" style="font-size: 16px; font-family: &quot;Andale Mono&quot;, monospace;"><tspan x="720">返回ResultSet</tspan></text><line x1="924" x2="620" y1="380" y2="380" stroke="#000000" fill="none" style="stroke-width: 2; marker-end: url(&quot;#markerArrowBlock&quot;);"></line></g><g class="signal"><text x="800" y="411" style="font-size: 16px; font-family: &quot;Andale Mono&quot;, monospace;"><tspan x="800">处理结果集</tspan></text><line x1="620" x2="1060" y1="416" y2="416" stroke="#000000" fill="none" style="stroke-width: 2; marker-end: url(&quot;#markerArrowBlock&quot;);"></line></g><g class="signal"><text x="600" y="447" style="font-size: 16px; font-family: &quot;Andale Mono&quot;, monospace;"><tspan x="600">返回Java对象</tspan></text><line x1="1060" x2="236" y1="452" y2="452" stroke="#000000" fill="none" style="stroke-width: 2; marker-end: url(&quot;#markerArrowBlock&quot;);"></line></g><g class="signal"><text x="261" y="485" style="font-size: 16px; font-family: &quot;Andale Mono&quot;, monospace;"><tspan x="261">关闭会话</tspan></text><line x1="236" x2="256" y1="472" y2="472" stroke="#000000" fill="none" style="stroke-width: 2;"></line><line x1="256" x2="256" y1="472" y2="493" stroke="#000000" fill="none" style="stroke-width: 2;"></line><line x1="256" x2="236" y1="493" y2="493" stroke="#000000" fill="none" style="stroke-width: 2; marker-end: url(&quot;#markerArrowBlock&quot;);"></line></g></svg>